<svg width="27" height="28" viewBox="0 0 27 28" fill="none" xmlns="http://www.w3.org/2000/svg">
<g clip-path="url(#clip0_12577_191)">
<path d="M3.46598 12.9132H0.476573C0.216624 12.9132 0 13.1194 0 13.3857C0 13.6521 0.216624 13.8583 0.476573 13.8583H3.47465C3.7346 13.8583 3.95122 13.6435 3.95122 13.3857C3.95122 13.128 3.7346 12.9132 3.47465 12.9132H3.46598Z" fill="#191919"/>
<path d="M13.4992 3.90917C13.7591 3.90917 13.9757 3.70298 13.9757 3.44523V0.472538C13.9757 0.21479 13.7591 0 13.4992 0C13.2392 0 13.0312 0.21479 13.0312 0.472538V3.44523C13.0312 3.70298 13.2392 3.90917 13.4992 3.90917Z" fill="#191919"/>
<path d="M26.5246 12.9132H23.5352C23.2752 12.9132 23.0586 13.1194 23.0586 13.3857C23.0586 13.6521 23.2752 13.8583 23.5352 13.8583H26.5246C26.7845 13.8583 27.0011 13.6435 27.0011 13.3857C27.0011 13.128 26.7845 12.9132 26.5246 12.9132Z" fill="#191919"/>
<path d="M23.039 3.91774C22.9524 3.83182 22.8311 3.78027 22.7011 3.78027C22.5711 3.78027 22.4585 3.83182 22.3718 3.91774L20.2576 6.01409C20.0756 6.19451 20.0756 6.49522 20.2576 6.67564C20.3442 6.76156 20.4655 6.81311 20.5955 6.81311C20.7255 6.81311 20.8381 6.76156 20.9248 6.67564L23.039 4.57929C23.1257 4.49338 23.1777 4.37309 23.1777 4.24422C23.1777 4.11535 23.1257 4.00365 23.039 3.90915V3.91774Z" fill="#191919"/>
<path d="M6.40247 6.82167C6.53244 6.82167 6.64509 6.77012 6.7404 6.68421C6.82705 6.59829 6.87904 6.47801 6.87904 6.35773C6.87904 6.22885 6.82705 6.10857 6.7404 6.02265L4.62615 3.9263C4.44419 3.74588 4.13225 3.75447 3.95895 3.9263C3.8723 4.01222 3.82031 4.1325 3.82031 4.26138C3.82031 4.39025 3.8723 4.50194 3.95895 4.59645L6.0732 6.6928C6.15985 6.77871 6.28116 6.83026 6.41113 6.83026L6.40247 6.82167Z" fill="#191919"/>
<path d="M13.5005 5.7821C11.4556 5.7821 9.5233 6.57253 8.07625 8.00733C6.62921 9.44212 5.83203 11.3495 5.83203 13.3857C5.83203 14.5369 6.08331 15.6453 6.58588 16.6848C7.05379 17.6385 7.72966 18.5063 8.54416 19.185V21.0923C8.54416 21.5219 8.70013 21.9343 9.0294 22.2866C9.03806 22.3037 9.04673 22.3123 9.06406 22.3295C9.19403 22.4584 9.35 22.5701 9.51464 22.656V25.053C9.51464 25.517 9.6966 25.9466 10.0259 26.2816C10.0259 26.2816 10.0345 26.2902 10.0432 26.2988C10.3725 26.6167 10.8057 26.7971 11.2736 26.7971H11.6462V27.5446C11.6462 27.8024 11.8628 28.0171 12.1228 28.0171H14.8869C15.1469 28.0171 15.3635 27.8024 15.3635 27.5446V26.7971H15.7361C16.204 26.7971 16.6459 26.6167 16.9752 26.2816C17.3131 25.9552 17.4951 25.517 17.4951 25.053V22.656C17.6597 22.5701 17.8157 22.467 17.9456 22.3295C18.2749 22.003 18.4569 21.5649 18.4569 21.1009V19.1936C19.2714 18.5063 19.9472 17.6385 20.4152 16.6848C20.9177 15.6538 21.169 14.5455 21.169 13.3857C21.169 11.358 20.3718 9.44212 18.9248 8.00733C17.4777 6.57253 15.5454 5.7821 13.5005 5.7821ZM14.4103 26.78V27.0635H12.5907V26.78H14.4103ZM16.5419 24.8383V25.0359C16.5419 25.2507 16.4553 25.4483 16.2993 25.6029C16.152 25.7576 15.944 25.8349 15.7274 25.8349H11.265C11.0483 25.8349 10.8404 25.749 10.6931 25.6029C10.5458 25.4569 10.4591 25.2507 10.4591 25.0359V24.8383H16.5419ZM10.4591 23.9018V22.8364H16.5419V23.9018H10.4591ZM11.7155 15.1126H13.0239V16.2209C13.0239 16.4786 13.2319 16.6848 13.4919 16.6848C13.7518 16.6848 13.9684 16.4786 13.9684 16.2209V15.1126H15.2768V21.8999H11.7155V15.1126ZM15.7534 12.5866C15.4935 12.5866 15.2768 12.8014 15.2768 13.0592V14.1675H13.9684V13.0592C13.9684 12.8014 13.7518 12.5866 13.4919 12.5866C13.2319 12.5866 13.0239 12.8014 13.0239 13.0592V14.1675H11.7155V13.0592C11.7155 12.8014 11.5076 12.5866 11.2476 12.5866C10.9877 12.5866 10.7711 12.8014 10.7711 13.0592V21.8913H10.2945C10.0779 21.8913 9.87857 21.8054 9.7226 21.6594C9.57529 21.5133 9.48864 21.2985 9.48864 21.0923V18.9702C9.48864 18.8156 9.41932 18.6781 9.29801 18.5922C8.5095 17.9736 7.8683 17.166 7.43505 16.281C6.99314 15.3789 6.77651 14.4081 6.77651 13.3943C6.77651 11.6158 7.47837 9.94044 8.74346 8.67747C10.0172 7.4231 11.6982 6.72718 13.5005 6.72718C15.3028 6.72718 16.9838 7.4231 18.2576 8.67747C19.5313 9.94044 20.2245 11.6072 20.2245 13.3943C20.2245 14.4081 19.9992 15.3789 19.566 16.281C19.1327 17.1831 18.4829 17.9822 17.6944 18.6008C17.5817 18.6867 17.5124 18.8241 17.5124 18.9702V21.0923C17.5124 21.3071 17.4257 21.5047 17.2698 21.6594C17.1138 21.814 16.9145 21.8913 16.6979 21.8913H16.2213V13.0592C16.2213 12.8014 16.0047 12.5866 15.7447 12.5866H15.7534Z" fill="#191919"/>
</g>
<defs>
<clipPath id="clip0_12577_191">
<rect width="27" height="28" fill="white"/>
</clipPath>
</defs>
</svg>
