<svg width="84" height="55" viewBox="0 0 84 55" fill="none" xmlns="http://www.w3.org/2000/svg">
<path fill-rule="evenodd" clip-rule="evenodd" d="M2.60147 52.9432H80.8167C81.1235 52.9432 81.4007 52.8193 81.6072 52.6128C81.8078 52.4123 81.9375 52.135 81.9375 51.8224V50.2237C81.9375 49.917 81.8137 49.6397 81.6072 49.4333L81.5777 49.4038C81.3771 49.2209 81.1117 49.1029 80.8167 49.1029H2.60147C2.29472 49.1029 2.01747 49.2268 1.811 49.4274C1.61044 49.6279 1.48656 49.9111 1.48656 50.2178V51.8165C1.48656 52.1232 1.61044 52.4064 1.811 52.6069C2.01157 52.8075 2.29472 52.9314 2.60147 52.9314V52.9432ZM8.43561 0.931427H74.9885C75.7082 0.931427 76.3571 1.22638 76.829 1.6983C77.3009 2.17022 77.5959 2.81912 77.5959 3.5388V47.6341H80.8226C81.5128 47.6341 82.1499 47.9054 82.6159 48.3537C82.6336 48.3655 82.6454 48.3832 82.6631 48.4009C83.135 48.8729 83.43 49.5217 83.43 50.2414V51.8401C83.43 52.5597 83.135 53.2086 82.6631 53.6806C82.1912 54.1525 81.5423 54.4474 80.8226 54.4474H2.60147C1.88769 54.4474 1.2329 54.1525 0.760975 53.6806C0.289052 53.2086 0 52.5597 0 51.846V50.2473C0 49.5335 0.294952 48.8847 0.760975 48.4127C1.2329 47.9408 1.88179 47.6459 2.59557 47.6459H5.82234V3.5329C5.82234 2.81912 6.1173 2.17022 6.58922 1.6983C7.06114 1.22638 7.71003 0.931427 8.42972 0.931427L8.43561 0.931427ZM74.9885 2.41798H8.43561C8.12887 2.41798 7.85161 2.54186 7.64514 2.74243C7.44458 2.943 7.3207 3.22025 7.3207 3.5329V47.6282H76.1034V3.5329C76.1034 3.22615 75.9795 2.9489 75.779 2.74243C75.5784 2.54186 75.2952 2.41798 74.9885 2.41798ZM29.1884 51.6513C28.7814 51.6513 28.4451 51.3151 28.4451 50.908C28.4451 50.501 28.7814 50.1647 29.1884 50.1647H53.7343C54.1413 50.1647 54.4776 50.4951 54.4776 50.908C54.4776 51.321 54.1472 51.6513 53.7343 51.6513H29.1884ZM10.3351 4.50624C9.92217 4.50624 9.59182 4.83659 9.59182 5.24952V44.7966C9.59182 45.2096 9.92217 45.5399 10.3351 45.5399H73.0831C73.496 45.5399 73.8264 45.2037 73.8264 44.7966V5.24952C73.8264 4.84248 73.496 4.50624 73.0831 4.50624H10.3351ZM72.3457 5.9928H11.0784V44.0533H72.3457V5.9928Z" fill="#30383B"/>
<path fill-rule="evenodd" clip-rule="evenodd" d="M75.7727 2.74834C75.5721 2.54777 75.2889 2.42389 74.9822 2.42389H8.43523C8.12848 2.42389 7.85123 2.54777 7.64476 2.74834C7.44419 2.9489 7.32031 3.22616 7.32031 3.53881V47.6341H76.103V3.53291C76.103 3.22616 75.9791 2.9489 75.7786 2.74244L75.7727 2.74834ZM73.8319 44.7966C73.8319 45.2096 73.5015 45.5399 73.0886 45.5399H10.3347C9.92179 45.5399 9.59144 45.2037 9.59144 44.7966V5.24953C9.59144 4.84249 9.92179 4.50625 10.3347 4.50625H73.0827C73.4956 4.50625 73.826 4.83659 73.826 5.24953V44.7966H73.8319Z" fill="#F05325"/>
</svg>
