<svg width="83" height="47" viewBox="0 0 83 47" fill="none" xmlns="http://www.w3.org/2000/svg">
<path fill-rule="evenodd" clip-rule="evenodd" d="M82.1327 26.4078H81.6182V21.9127C81.6182 21.1274 81.3149 20.4071 80.8112 19.871C80.313 19.3348 79.6144 18.9882 78.8345 18.9286L64.824 17.97C64.3257 17.9375 63.8708 17.813 63.47 17.6018C63.0693 17.3906 62.7064 17.0873 62.3923 16.6973L50.9272 2.40519C50.4289 1.78238 49.8332 1.3058 49.1508 0.980853C48.4738 0.650493 47.7265 0.482605 46.9303 0.482605H12.0421C10.8452 0.482605 9.74584 0.88337 8.86307 1.582C7.98572 2.27522 7.33583 3.25547 7.05963 4.41985L3.85893 17.8401H2.52124C2.05007 17.8401 1.67096 18.2246 1.67096 18.6903V26.4024H1.15105C0.685299 26.4024 0.300781 26.7869 0.300781 27.2526V32.9013C0.300781 34.3148 0.87485 35.5929 1.80636 36.519C2.73787 37.4451 4.01598 38.0191 5.42408 38.0191H7.78534C8.20777 38.0191 8.58146 37.6996 8.6302 37.2663C8.91723 34.8455 10.0979 32.69 11.8363 31.1466C13.5531 29.6301 15.8115 28.7095 18.2865 28.7095C20.7615 28.7095 23.0252 29.6301 24.7366 31.1466C26.4642 32.6792 27.6395 34.8184 27.9373 37.2284C27.9698 37.6671 28.3381 38.0191 28.7876 38.0191H56.8736C57.3015 38.0191 57.6698 37.6996 57.7185 37.2663C58.011 34.8455 59.1916 32.69 60.9246 31.1466C62.6414 29.6301 64.8998 28.7095 67.3748 28.7095C69.8498 28.7095 72.1136 29.6301 73.8249 31.1466C75.5471 32.6792 76.7278 34.8184 77.0256 37.2284C77.0581 37.6671 77.4264 38.0191 77.8759 38.0191H80.0097C80.8329 38.0191 81.5803 37.6834 82.1219 37.1418C82.6634 36.6056 82.9992 35.8582 82.9992 35.0351V27.2526C82.9992 26.7815 82.6147 26.4024 82.1435 26.4024L82.1327 26.4078ZM26.6051 16.719H11.0944L13.5044 7.34435C13.5802 7.05732 13.7427 6.81903 13.9539 6.64572C14.1705 6.48325 14.4413 6.38577 14.7446 6.38577H26.6051V16.719ZM33.9705 16.719V6.38035H45.8689C46.0801 6.38035 46.2696 6.41826 46.4321 6.4995C46.5946 6.57532 46.7462 6.69988 46.8762 6.86235L54.6965 16.7136H33.9759L33.9705 16.719Z" fill="#181818"/>
<path fill-rule="evenodd" clip-rule="evenodd" d="M23.6987 32.9283C22.3069 31.5581 20.3897 30.7078 18.283 30.7078C16.1762 30.7078 14.2157 31.5798 12.8185 32.977C11.4212 34.3743 10.5547 36.3131 10.5547 38.4469C10.5547 40.5807 11.4212 42.5196 12.8185 43.9168L12.8726 43.9656C14.2699 45.3412 16.1871 46.186 18.2884 46.186C20.3897 46.186 22.3556 45.3195 23.7583 43.9222C25.1555 42.525 26.0221 40.5916 26.0221 38.4523C26.0221 36.3131 25.1555 34.3851 23.7583 32.9824L23.7041 32.9337L23.6987 32.9283ZM22.5397 42.7037C21.4512 43.7923 19.9402 44.4746 18.2775 44.4746C16.6149 44.4746 15.1418 43.8139 14.0587 42.7524L14.0153 42.7037C12.9214 41.6151 12.2498 40.1041 12.2498 38.4415C12.2498 36.7789 12.9214 35.2679 14.0153 34.1793C15.1039 33.0908 16.6149 32.4192 18.2775 32.4192C19.9402 32.4192 21.4133 33.0799 22.5018 34.1414L22.5397 34.1793C23.6337 35.2733 24.3107 36.7789 24.3107 38.4415C24.3107 40.1041 23.6337 41.6151 22.5397 42.7037Z" fill="#181818"/>
<path fill-rule="evenodd" clip-rule="evenodd" d="M70.2948 35.4141C69.5312 34.6776 68.5022 34.2281 67.3649 34.2281C66.2276 34.2281 65.1445 34.6993 64.3808 35.4683C63.6172 36.2319 63.1406 37.288 63.1406 38.4524C63.1406 39.6168 63.6118 40.6728 64.3808 41.4364L64.435 41.4852C65.1932 42.2217 66.2276 42.6712 67.3649 42.6712C68.5022 42.6712 69.5854 42.2001 70.349 41.431C71.1126 40.6674 71.5892 39.6113 71.5892 38.447C71.5892 37.2826 71.118 36.2265 70.349 35.4629L70.2948 35.4141ZM69.1413 40.2233C68.6863 40.6782 68.0581 40.9599 67.3595 40.9599C66.6609 40.9599 66.0705 40.6945 65.6156 40.2612L65.5777 40.2233C65.1228 39.7684 64.8412 39.1402 64.8412 38.447C64.8412 37.7537 65.1228 37.1201 65.5777 36.6652C66.0272 36.2103 66.6609 35.9286 67.3541 35.9286C68.0473 35.9286 68.6484 36.194 69.0979 36.6273L69.1359 36.6652C69.5854 37.1201 69.8724 37.7483 69.8724 38.447C69.8724 39.1456 69.5908 39.7684 69.1359 40.2233H69.1413Z" fill="#181818"/>
<path fill-rule="evenodd" clip-rule="evenodd" d="M69.1083 36.6327C68.6588 36.1994 68.0469 35.934 67.3645 35.934C66.6821 35.934 66.0376 36.2102 65.5881 36.6706C65.1332 37.1255 64.8516 37.7537 64.8516 38.4523C64.8516 39.151 65.1332 39.7738 65.5881 40.2287L65.626 40.2666C66.0809 40.6999 66.6875 40.9652 67.3699 40.9652C68.0523 40.9652 68.6967 40.6836 69.1517 40.2287C69.6012 39.7738 69.8882 39.1456 69.8882 38.4523C69.8882 37.7591 69.6066 37.1255 69.1517 36.6706L69.1138 36.6327H69.1083Z" fill="#181818"/>
<path fill-rule="evenodd" clip-rule="evenodd" d="M18.277 35.934C17.5838 35.934 16.9556 36.2156 16.5007 36.6706L16.4627 36.7085C16.0349 37.158 15.7695 37.77 15.7695 38.4523C15.7695 39.1347 16.0512 39.7792 16.5061 40.2287C16.961 40.6836 17.5892 40.9652 18.2824 40.9652C18.9757 40.9652 19.6093 40.6836 20.0588 40.2287L20.0967 40.1962C20.53 39.7467 20.7953 39.1293 20.7953 38.4523C20.7953 37.7754 20.5083 37.1255 20.0588 36.6706C19.6039 36.2156 18.9702 35.934 18.277 35.934Z" fill="#181818"/>
<path fill-rule="evenodd" clip-rule="evenodd" d="M18.2775 34.2226C17.1131 34.2226 16.057 34.6938 15.2934 35.4628L15.2446 35.517C14.5081 36.2806 14.0586 37.315 14.0586 38.4523C14.0586 39.5896 14.5298 40.6673 15.2988 41.4364C16.0624 42.2 17.1185 42.6766 18.2829 42.6766C19.4473 42.6766 20.5087 42.2054 21.267 41.4364L21.3157 41.3822C22.0522 40.6186 22.5017 39.5896 22.5017 38.4523C22.5017 37.315 22.0306 36.2318 21.2615 35.4682C20.4979 34.7046 19.4418 34.228 18.2775 34.228V34.2226ZM20.0971 40.1907L20.0592 40.2232C19.6043 40.6782 18.9761 40.9598 18.2829 40.9598C17.5897 40.9598 16.9614 40.6782 16.5065 40.2232C16.0516 39.7737 15.77 39.1455 15.77 38.4469C15.77 37.7482 16.0353 37.1525 16.4632 36.703L16.5011 36.6651C16.956 36.2102 17.5842 35.9286 18.2775 35.9286C18.9707 35.9286 19.6043 36.2102 20.0592 36.6651C20.5087 37.12 20.7958 37.7482 20.7958 38.4469C20.7958 39.1455 20.5304 39.7358 20.0971 40.1907Z" fill="#181818"/>
<path fill-rule="evenodd" clip-rule="evenodd" d="M72.7877 32.9283C71.3904 31.5581 69.4786 30.7078 67.3665 30.7078C65.2544 30.7078 63.2993 31.5798 61.8966 32.977C60.4993 34.3743 59.6328 36.3131 59.6328 38.4469C59.6328 40.5807 60.4993 42.5141 61.8966 43.9114C63.2939 45.3141 65.2327 46.1806 67.3665 46.1806C69.5003 46.1806 71.4391 45.3141 72.8418 43.9168C74.2391 42.5196 75.1056 40.5861 75.1056 38.4469C75.1056 36.3077 74.2391 34.3797 72.8418 32.977L72.7877 32.9283ZM71.6341 42.7037C70.5455 43.7923 69.0345 44.4746 67.3719 44.4746C65.7093 44.4746 64.1983 43.7977 63.1097 42.7037C62.0212 41.6151 61.3496 40.1096 61.3496 38.4415C61.3496 36.7735 62.0266 35.2679 63.1206 34.1793C64.2091 33.0908 65.7147 32.4138 67.3827 32.4138C69.0508 32.4138 70.5185 33.0745 71.607 34.136L71.6449 34.1739C72.7335 35.2679 73.4105 36.7735 73.4105 38.4361C73.4105 40.0987 72.7335 41.6097 71.6449 42.6983L71.6341 42.7037Z" fill="#181818"/>
<path fill-rule="evenodd" clip-rule="evenodd" d="M80.769 28.1191C80.2978 28.1191 79.9133 27.7346 79.9133 27.2634V21.9181C79.9133 21.5769 79.7833 21.2682 79.5721 21.0407C79.3555 20.8133 79.063 20.6616 78.7218 20.6399L71.8276 20.1688C71.7897 20.1688 71.7572 20.1688 71.7193 20.1579L64.7113 19.6759C63.9802 19.6272 63.3032 19.4377 62.6858 19.1181C62.0738 18.7932 61.5268 18.3491 61.0719 17.775L49.596 3.47746C49.2548 3.05503 48.8594 2.73008 48.4207 2.51887C47.9766 2.31307 47.4784 2.19934 46.9314 2.19934H12.0432C11.2362 2.19934 10.4943 2.46471 9.9148 2.91963C9.33531 3.37997 8.90747 4.03528 8.71792 4.82056L5.36557 18.8744C5.28975 19.2644 4.94315 19.5568 4.53155 19.5568H3.37258V27.2688C3.37258 27.74 2.98806 28.1245 2.52231 28.1245H2.00781V32.9174C2.00781 33.8544 2.39233 34.7101 3.00973 35.3274C3.62712 35.9448 4.47739 36.3294 5.41973 36.3294H7.04987C7.52646 33.7894 8.8479 31.5418 10.7055 29.8955C12.7256 28.1083 15.3793 27.0197 18.2821 27.0197C21.185 27.0197 23.8441 28.1083 25.8588 29.8955C27.7164 31.5473 29.0378 33.7894 29.5144 36.3294H56.1382C56.6093 33.7894 57.9308 31.5418 59.7884 29.8955C61.8139 28.1083 64.4622 27.0197 67.365 27.0197C70.2678 27.0197 72.9216 28.1083 74.9416 29.8955C76.8047 31.5473 78.1207 33.7894 78.5973 36.3294H79.9999C80.352 36.3294 80.6715 36.1831 80.9044 35.9503C81.1372 35.7174 81.2835 35.3979 81.2835 35.0458V28.1191H80.769ZM26.6061 16.719H11.0954L13.5054 7.3443C13.5813 7.05726 13.7437 6.81897 13.9549 6.64567C14.1716 6.48319 14.4424 6.38571 14.7456 6.38571H26.6061V16.719ZM56.9884 18.2354C56.8314 18.3599 56.6473 18.4195 56.4577 18.4195H33.1158C32.6447 18.4195 32.2602 18.0404 32.2602 17.5692V5.52461C32.2602 5.05344 32.6447 4.67434 33.1158 4.67434H45.8645C46.3303 4.67434 46.7689 4.77182 47.1643 4.96137C47.5651 5.15634 47.9117 5.43796 48.1987 5.80081L57.1184 17.0331C57.4055 17.4013 57.3513 17.9375 56.983 18.2299L56.9884 18.2354Z" fill="#F05325"/>
<path fill-rule="evenodd" clip-rule="evenodd" d="M27.4543 4.67973H14.7435C14.0612 4.67973 13.4275 4.90719 12.9184 5.30254C12.4094 5.69789 12.0303 6.25571 11.857 6.92727L9.17616 17.3634C9.05701 17.8183 9.33322 18.2787 9.78814 18.3978C9.85313 18.4141 9.92353 18.4249 9.99394 18.4249H27.4543C27.9255 18.4249 28.3046 18.0458 28.3046 17.5746V5.52459C28.3046 5.05342 27.9255 4.67432 27.4543 4.67432V4.67973ZM26.604 16.7189H11.0933L13.5033 7.34428C13.5792 7.05724 13.7416 6.81895 13.9528 6.64565C14.1695 6.48317 14.4403 6.38569 14.7435 6.38569H26.604V16.7189Z" fill="#181818"/>
</svg>
