<svg width="48" height="76" viewBox="0 0 48 76" fill="none" xmlns="http://www.w3.org/2000/svg">
<path fill-rule="evenodd" clip-rule="evenodd" d="M5.72213 21.0971L29.9447 14.6122L30.5314 11.919L25.049 1.57291C24.841 1.17827 24.9957 0.682294 25.3957 0.474306C25.513 0.410309 25.6463 0.378311 25.7743 0.378311H42.408C42.8613 0.378311 43.224 0.74629 43.224 1.19426C43.224 1.33292 43.1866 1.46625 43.1227 1.58358L37.9816 11.919L40.3281 23.129C40.3281 23.129 40.3388 23.1823 40.3441 23.2037L43.624 38.8668C43.6293 38.8988 43.64 38.9254 43.64 38.9521L46.9198 54.6152C46.9304 54.6472 46.9304 54.6685 46.9411 54.6952L47.981 59.6656C48.0344 59.9109 47.981 60.1722 47.805 60.3802L34.8778 75.686C34.8511 75.718 34.8245 75.7447 34.7925 75.7713C34.4511 76.07 33.9392 76.0326 33.6405 75.6967L21.4866 61.8574C21.4546 61.8308 21.4279 61.7935 21.4012 61.7615L20.3133 60.5189C20.1213 60.3269 20.0253 60.0496 20.0893 59.7669L27.4169 26.1955V26.1848L28.1795 22.7024L7.73802 28.542C7.58869 28.5847 7.43404 28.5847 7.29538 28.542L0.698422 27.1928C0.255781 27.1021 -0.0268698 26.6701 0.0637917 26.2328C0.101123 26.0462 0.20245 25.8862 0.335776 25.7689L5.40215 21.2784C5.50348 21.1931 5.61547 21.1345 5.7328 21.1025L5.72213 21.0971ZM22.3345 60.3482L45.1759 54.2259L42.2107 40.0827L25.049 44.6798L21.7692 59.7029L22.3345 60.3429V60.3482ZM29.2994 25.2249L38.5842 22.7397L36.467 12.6229H32.0513L31.438 15.4334V15.4441L30.0674 21.7211V21.7371L30.0621 21.7478L29.2994 25.2302V25.2249Z" fill="#181818"/>
<path fill-rule="evenodd" clip-rule="evenodd" d="M25.4453 42.8884L41.8822 38.4832L38.9169 24.3396L28.9065 27.0222L25.4453 42.8884Z" fill="#F05325"/>
<path fill-rule="evenodd" clip-rule="evenodd" d="M45.5118 55.8311L23.5391 61.719L34.2428 73.9053L46.3064 59.6284L45.5118 55.8311Z" fill="#F05325"/>
<path fill-rule="evenodd" clip-rule="evenodd" d="M31.8886 10.9807H36.6191L41.0883 2.01025H27.1367L31.8886 10.9807Z" fill="#F05325"/>
<path fill-rule="evenodd" clip-rule="evenodd" d="M28.5684 20.8893L29.5444 16.4094L6.32375 22.6279L2.61719 25.9238L7.47038 26.9158L28.5684 20.8893Z" fill="#F05325"/>
</svg>
