<svg width="39" height="70" viewBox="0 0 39 70" fill="none" xmlns="http://www.w3.org/2000/svg">
<path fill-rule="evenodd" clip-rule="evenodd" d="M19.0183 18.0941C10.7691 18.2467 1.92097 21.3882 1 33.8354V63.3461C1 66.2051 2.88715 68.5443 5.19806 68.5443H32.8386C35.1495 68.5443 37.0366 66.2051 37.0366 63.3461V33.8354C36.1157 21.3825 27.2675 18.2467 19.0183 18.0941Z" stroke="#30383B" stroke-width="2" stroke-miterlimit="10"/>
<path d="M24.9242 34.7847H13.1154C10.3507 34.7847 8.10938 37.0259 8.10938 39.7907V54.9839C8.10938 57.7487 10.3507 59.99 13.1154 59.99H24.9242C27.689 59.99 29.9302 57.7487 29.9302 54.9839V39.7907C29.9302 37.0259 27.689 34.7847 24.9242 34.7847Z" fill="#F05325" stroke="#30383B" stroke-width="2" stroke-miterlimit="10"/>
<path d="M21.8047 10.7659V1.60135" stroke="#30383B" stroke-width="2" stroke-miterlimit="10"/>
<path d="M16.2266 10.7659V1.60135" stroke="#30383B" stroke-width="2" stroke-miterlimit="10"/>
<path d="M11.6445 1.00241H30.8607C30.8607 1.00241 33.2507 0.804656 33.2507 3.99134V7.07632" stroke="#30383B" stroke-width="2" stroke-miterlimit="10" stroke-linecap="round"/>
<path d="M26.0193 10.8619H12.0183C11.6501 10.8619 11.3516 11.1604 11.3516 11.5286V17.6025C11.3516 17.9708 11.6501 18.2693 12.0183 18.2693H26.0193C26.3876 18.2693 26.6861 17.9708 26.6861 17.6025V11.5286C26.6861 11.1604 26.3876 10.8619 26.0193 10.8619Z" fill="#F05325" stroke="#30383B" stroke-width="2" stroke-miterlimit="10"/>
</svg>
