<svg width="68" height="71" viewBox="0 0 68 71" fill="none" xmlns="http://www.w3.org/2000/svg">
<path fill-rule="evenodd" clip-rule="evenodd" d="M23.4504 3.56488V11.4851H29.46L23.4504 3.56488ZM21.6829 0.669499C21.8091 0.189742 22.3057 -0.0964287 22.7855 0.0298232C23.0127 0.0887407 23.1979 0.231826 23.3157 0.416996L31.9345 11.7712C31.9345 11.7712 32.0019 11.8638 32.0355 11.9059L39.072 21.1644C39.072 21.1644 39.1393 21.257 39.173 21.2991L46.2094 30.5575C46.2094 30.5575 46.2852 30.6501 46.3104 30.6922L53.3468 39.9507C53.3889 39.9927 53.4226 40.0432 53.4563 40.0853L60.2907 49.0829C60.4422 49.2428 60.5348 49.4532 60.5348 49.6973C60.5348 50.1939 60.1308 50.5979 59.6342 50.5979H23.442V56.0351H66.738C67.2345 56.0351 67.6385 56.4392 67.6385 56.9357C67.6385 57.2387 67.487 57.5081 67.2514 57.6764L53.4815 68.9044C52.9849 69.3168 52.4462 69.6114 51.8823 69.8134C51.31 70.0154 50.7124 70.1164 50.0727 70.1164H7.51741C6.27173 70.1164 5.11863 69.704 4.2012 68.9886C3.28377 68.2732 2.59359 67.2547 2.29059 66.0511L0.0264693 57.1462C-0.0913658 56.6664 0.194805 56.1782 0.674562 56.052C0.750313 56.0351 0.826064 56.0267 0.893399 56.0267H6.85249L21.6829 0.669499ZM21.6492 7.73119L8.70418 56.0267H21.6492V49.7731V49.6889V7.73119ZM23.4504 39.6645H50.8723L45.0984 32.0725H23.4504V39.6645ZM52.2358 41.4573H23.4504V48.7883H57.8077L52.2358 41.4573ZM23.4504 30.2629H43.7349L37.9609 22.671H23.442V30.2629H23.4504ZM23.4504 20.8782H36.5974L30.8319 13.2863H23.4504V20.8782ZM64.2213 57.8279H2.05492L4.03286 65.605C4.23486 66.413 4.68937 67.0948 5.3038 67.5661C5.90981 68.0375 6.68415 68.3152 7.51741 68.3152H50.0811C50.5188 68.3152 50.9228 68.2479 51.2931 68.1132C51.6635 67.9786 52.017 67.7766 52.3537 67.5072L64.2213 57.8279Z" fill="#30383B"/>
<path fill-rule="evenodd" clip-rule="evenodd" d="M23.4492 39.6645H50.8711L45.0972 32.0641H23.4492V39.6645Z" fill="#F05325"/>
<path fill-rule="evenodd" clip-rule="evenodd" d="M23.4492 20.8782H36.5962L30.8307 13.2863H23.4492V20.8782Z" fill="#F05325"/>
<path fill-rule="evenodd" clip-rule="evenodd" d="M64.2211 57.8279H2.05469L4.03263 65.6051C4.23464 66.4131 4.68914 67.0948 5.30357 67.5662C5.90958 68.0375 6.68392 68.3153 7.51718 68.3153H50.0809C50.5186 68.3153 50.9226 68.2479 51.2929 68.1133C51.6632 67.9786 52.0168 67.7766 52.3534 67.5073L64.2211 57.8279Z" fill="#F05325"/>
</svg>
