<svg width="70" height="67" viewBox="0 0 70 67" fill="none" xmlns="http://www.w3.org/2000/svg">
<path fill-rule="evenodd" clip-rule="evenodd" d="M24.9176 46.4492H34.1912C34.8026 46.4492 35.3607 46.2932 35.8408 46.006C36.3085 45.7229 36.6984 45.3125 36.9815 44.7955L37.002 44.7545L51.7002 16.7655H2.10303L16.7971 44.7545C17.0761 45.292 17.4783 45.7147 17.9584 46.006C18.4303 46.2932 18.9965 46.4492 19.6038 46.4492H24.9135H24.9176ZM44.0557 4.2011L51.294 2.25201L39.3532 1.73088L44.0598 4.2011H44.0557ZM56.4149 0.893799C56.6858 0.885592 56.9402 1.0169 57.092 1.23848L69.4882 17.6437C69.7508 17.9925 69.6811 18.489 69.3323 18.7516C69.0738 18.9526 68.725 18.9608 68.4583 18.8049L60.3993 14.5744H60.3911L60.387 14.5662L55.5614 12.0344L52.6891 10.5285L50.2435 15.1899H53.0051C53.44 15.1899 53.8011 15.5469 53.8011 15.9818C53.8011 16.1295 53.7601 16.2773 53.6821 16.3962L38.4012 45.5013L38.3766 45.5464C37.954 46.3261 37.3672 46.9457 36.6614 47.3765C35.9351 47.8115 35.0939 48.0495 34.1953 48.0495H29.6734V60.7452C29.6734 60.9996 29.7473 61.2376 29.8827 61.4264C30.014 61.6151 30.211 61.7711 30.4449 61.8572L39.6405 65.2671C40.0508 65.4189 40.2601 65.8785 40.1082 66.2847C39.9892 66.6048 39.6856 66.8018 39.3614 66.8018H14.4213C13.9822 66.8018 13.6293 66.4489 13.6293 66.0098C13.6293 65.661 13.855 65.3656 14.1669 65.2589L23.342 61.8531L23.3707 61.8449C23.5964 61.7547 23.7769 61.6069 23.9082 61.4223C24.0395 61.2335 24.1134 60.9955 24.1134 60.7411V48.0454H19.5956C18.697 48.0454 17.8558 47.8074 17.1336 47.3724C16.4155 46.9375 15.8123 46.3014 15.3938 45.5013L0.0923895 16.3429C-0.112778 15.9572 0.0349426 15.4771 0.424761 15.276C0.543758 15.2145 0.666858 15.1817 0.794062 15.1817H48.4544L51.2899 9.78575L43.5879 5.74806L43.5715 5.73985L35.4838 1.49289C35.0981 1.29182 34.9503 0.811732 35.1514 0.426017C35.3073 0.130576 35.6151 -0.0253508 35.9228 0.00337261L56.4108 0.893799H56.4149ZM58.8934 6.24867L61.3964 13.3064L66.0947 15.7725L58.8975 6.24457L58.8934 6.24867ZM55.9349 2.63772L59.3324 12.2272L52.726 8.75581L52.7055 8.74761L46.1114 5.28438L55.9349 2.63772ZM9.38647 26.2853C9.36596 26.2525 9.34954 26.2197 9.33723 26.1868L6.06276 19.9538C5.8617 19.5681 6.00531 19.0839 6.39513 18.8829C6.51413 18.8213 6.63723 18.7926 6.76033 18.7926H47.0388C47.4737 18.7926 47.8348 19.1455 47.8348 19.5845C47.8348 19.7364 47.7897 19.8759 47.7158 19.9949L44.6219 25.8873C44.6137 26.1417 44.4865 26.3715 44.2937 26.511L35.6602 42.949L35.6315 42.9983C35.3894 43.4414 35.0488 43.7943 34.6426 44.0405C34.2199 44.2949 33.7275 44.4344 33.2023 44.4344H20.5845C20.0634 44.4344 19.571 44.299 19.1524 44.0405C18.7339 43.7861 18.381 43.4168 18.1348 42.949L9.38647 26.2853ZM10.5395 25.0748L8.0734 20.3724H45.7298L43.2637 25.0748H10.5395ZM28.0895 48.0372H25.7137V60.7329C25.7137 61.3197 25.5331 61.8654 25.2213 62.3168C24.9176 62.7559 24.4786 63.1047 23.9493 63.3098L23.9 63.3303L18.8406 65.2097H34.9503L29.895 63.3303C29.3452 63.1252 28.8897 62.7682 28.5778 62.3168C28.2619 61.8654 28.0854 61.3156 28.0854 60.7329V48.0372H28.0895Z" fill="#181818"/>
<path fill-rule="evenodd" clip-rule="evenodd" d="M42.4295 26.6587L34.2598 42.2104L34.2393 42.2473C34.1367 42.4361 33.993 42.5797 33.8248 42.6823C33.6484 42.7931 33.435 42.8464 33.2011 42.8464H20.5833C20.3576 42.8464 20.1442 42.789 19.9678 42.6823C19.7873 42.5756 19.6395 42.4156 19.5328 42.2145L11.3672 26.6628H42.4254L42.4295 26.6587Z" fill="#F05325"/>
</svg>
