<svg width="71" height="80" viewBox="0 0 71 80" fill="none" xmlns="http://www.w3.org/2000/svg">
<path fill-rule="evenodd" clip-rule="evenodd" d="M61.7593 56.9177C64.1328 57.5531 66.1966 58.9289 67.6984 60.7878C69.2895 62.7518 70.24 65.2566 70.24 67.982C70.24 71.1432 68.9587 74.0103 66.8845 76.0793C64.8155 78.1535 61.9483 79.4348 58.7871 79.4348C55.6259 79.4348 52.764 78.1535 50.6898 76.0793C48.6156 74.0103 47.3343 71.1432 47.3343 67.982C47.3343 65.2566 48.2847 62.757 49.8758 60.7878C51.3777 58.9342 53.4467 57.5531 55.8149 56.9177V20.0858C55.8149 16.1684 54.2291 12.6239 51.6613 10.0613C49.0934 7.49345 45.5489 5.90759 41.6367 5.90759C37.7246 5.90759 34.1748 7.49345 31.6069 10.0613C29.0391 12.6291 27.4532 16.1737 27.4532 20.0858V20.2171C33.0353 20.8893 38.0449 23.4361 41.8205 27.2169C46.2525 31.649 48.9936 37.7718 48.9936 44.5406C48.9936 44.945 48.6681 45.2705 48.2637 45.2705H47.4235V45.948C47.434 46.5413 47.434 47.1977 47.434 47.7806C47.4235 53.767 47.1295 58.3723 45.6171 62.1374C44.1468 65.808 41.5527 68.6331 37.0209 71.0644L37.315 71.7786C37.4673 72.1462 37.2887 72.5715 36.9212 72.7238L32.5049 74.5355H32.4996C31.3864 74.9923 30.1891 74.9556 29.1599 74.525C28.1359 74.0944 27.2695 73.2804 26.8074 72.1777L26.7968 72.1567C26.34 71.0434 26.3768 69.8461 26.8126 68.8169C27.2432 67.7824 28.0676 66.916 29.1809 66.4539L33.6024 64.6422C33.97 64.4899 34.3953 64.6685 34.5476 65.036L34.7734 65.5769C37.6563 63.7758 39.3525 61.6805 40.3344 59.0339C41.4214 56.109 41.6735 52.4594 41.6997 47.7754C41.6997 47.224 41.6997 46.5991 41.6997 46.032V45.2705H40.8333C40.4289 45.2705 40.1034 44.945 40.1034 44.5406C40.1034 40.2347 38.3547 36.333 35.5348 33.5079C32.7149 30.688 28.8133 28.9393 24.5073 28.9393C20.2013 28.9393 16.2997 30.6827 13.4798 33.5079C10.6599 36.3278 8.91128 40.2294 8.91128 44.5354C8.91128 44.9397 8.5857 45.2653 8.18136 45.2653H7.36743V46.0057C7.36218 46.5834 7.35692 47.2135 7.36218 47.7754C7.38318 52.4647 7.63524 56.109 8.72749 59.0339C9.70946 61.6805 11.4056 63.7705 14.2885 65.5769L14.5143 65.036C14.6666 64.6632 15.0919 64.4899 15.4595 64.6422L19.881 66.4539C20.9943 66.9107 21.8187 67.7824 22.2493 68.8169C22.6694 69.8304 22.7167 71.0014 22.2861 72.0937C22.2703 72.1357 22.2546 72.1777 22.2336 72.2144C21.7715 73.3014 20.9155 74.1049 19.8968 74.525C18.8675 74.9556 17.6703 74.9923 16.557 74.5355L12.1355 72.7238C11.7627 72.5715 11.5894 72.1462 11.7364 71.7786L12.0305 71.0644C7.49871 68.6331 4.90462 65.808 3.43428 62.1374C1.92194 58.3723 1.62787 53.767 1.61737 47.7806C1.61737 47.1977 1.61737 46.5361 1.61737 45.9427V45.2758H0.729916C0.325574 45.2758 0 44.9502 0 44.5459C0 37.7823 2.74112 31.6542 7.17313 27.2222C10.954 23.4413 15.9636 20.8945 21.5457 20.2224V20.0911C21.5457 14.5458 23.7932 9.52567 27.427 5.89184C31.0766 2.24751 36.0967 0 41.6472 0C47.1977 0 52.2126 2.24751 55.8465 5.88134C59.433 9.4679 61.67 14.404 61.7278 19.8653C61.7488 19.9335 61.7593 20.0071 61.7593 20.0858V56.9177ZM45.9847 45.2653H43.1438V46.0215C43.1543 46.5939 43.1543 47.224 43.1491 47.7754C43.1281 52.6222 42.855 56.4136 41.6945 59.538C40.5707 62.5627 38.633 64.9258 35.3353 66.937L36.4748 69.7096C40.5917 67.4674 42.9495 64.8995 44.2781 61.5913C45.7064 58.0362 45.9847 53.5832 45.99 47.7754C45.99 47.1977 45.99 46.5413 45.99 45.948V45.2653H45.9847ZM24.8119 21.4984H24.5598H24.5441H24.2395H24.2185H24.2028C17.9591 21.5772 12.3193 24.145 8.21812 28.2462C4.20621 32.2581 1.66988 37.7351 1.48084 43.8107H7.47245C7.65624 39.3892 9.52567 35.4036 12.4506 32.4786C15.533 29.3962 19.797 27.4848 24.5073 27.4848C29.2176 27.4848 33.4816 29.3962 36.5641 32.4786C39.489 35.4036 41.3584 39.3892 41.5422 43.8107H47.5338C47.3448 37.7351 44.8032 32.2581 40.7965 28.2462C36.6953 24.145 31.0503 21.5824 24.8119 21.4984ZM24.9064 20.0438C25.2793 20.0438 25.6468 20.0648 26.0144 20.0858C26.0144 15.7693 27.7631 11.8624 30.5935 9.03206C33.4186 6.20166 37.3307 4.45301 41.6472 4.45301C45.9637 4.45301 49.8706 6.20166 52.701 9.03206C55.5314 11.8624 57.28 15.7693 57.28 20.0858V61.8906C57.5951 61.8118 57.9154 61.7593 58.241 61.733L58.3303 61.7225H58.3408H58.3513H58.367H58.409H58.43H58.451H58.4931H58.5141H58.5561H58.5718H58.5928H58.6138H58.6348H58.7189H58.7399H58.8816H58.9027H58.9814H59.0024H59.0392H59.0602H59.0812H59.139H59.16H59.181H59.2177H59.223H59.2335H59.244H59.2545L59.349 61.733C59.6798 61.7646 60.0002 61.8171 60.31 61.8906V20.3011C60.289 20.2329 60.2785 20.1593 60.2785 20.0858C60.2785 14.9396 58.1937 10.2871 54.8225 6.91582C51.4512 3.54456 46.7934 1.45983 41.6525 1.45983C36.5116 1.45983 31.8485 3.54456 28.4772 6.91582C25.106 10.2871 23.0212 14.9449 23.0212 20.0858C23.3888 20.0648 23.7617 20.0491 24.1397 20.0438H24.2448H24.2658H24.4181H24.4338H24.7541H24.7699H24.8066H24.8434H24.9117H24.9064ZM58.9184 63.1614H58.9027H58.8869H58.8711H58.8554H58.6926H58.6768H58.6611H58.6453H58.5823H58.5666H58.5193H58.5088H58.4878H58.4773H58.451H58.4405C57.8839 63.2034 57.3483 63.3399 56.8599 63.55C56.3138 63.7968 55.8255 64.1328 55.4106 64.5477C54.5389 65.4194 53.998 66.6219 53.998 67.9557C53.998 69.2895 54.5389 70.492 55.4106 71.3637C56.2823 72.2354 57.4848 72.7763 58.8186 72.7763C60.1524 72.7763 61.355 72.2354 62.2267 71.3637C63.0984 70.492 63.6392 69.2895 63.6392 67.9557C63.6392 66.6219 63.0984 65.4246 62.2267 64.5477C61.8118 64.1328 61.3287 63.7968 60.7878 63.5552H60.7826C60.3257 63.3557 59.8269 63.2244 59.307 63.1719H59.2597H59.244H59.2335H59.2177H59.202H59.1862H59.181H59.1547H59.139H59.1232H59.1127H59.0759H59.0602H58.9972L58.9184 63.1614ZM61.7593 62.4525C62.3002 62.7413 62.7938 63.1141 63.2244 63.5447C64.3586 64.679 65.0623 66.2491 65.0623 67.982C65.0623 69.7149 64.3586 71.285 63.2244 72.414C62.0901 73.5482 60.52 74.2519 58.7871 74.2519C57.0542 74.2519 55.4841 73.5482 54.3551 72.414C53.2209 71.2797 52.5172 69.7096 52.5172 67.982C52.5172 66.2543 53.2156 64.679 54.3551 63.5447C54.7857 63.1141 55.2793 62.7465 55.8202 62.4525V58.43C53.9088 59.0234 52.2441 60.1734 51.0101 61.6963C49.6238 63.4134 48.7888 65.5979 48.7888 67.9767C48.7888 70.7388 49.9074 73.2384 51.719 75.0448C53.5254 76.8512 56.025 77.9697 58.7871 77.9697C61.5493 77.9697 64.0488 76.8512 65.8552 75.0448C67.6616 73.2384 68.7802 70.7388 68.7802 67.9767C68.7802 65.5979 67.9505 63.4082 66.5641 61.6963C65.3354 60.1734 63.6707 59.0234 61.7541 58.43V62.4525H61.7593ZM5.91285 45.9952V45.26H3.08245V45.9322C3.07195 46.5256 3.07195 47.1872 3.07195 47.7649C3.0772 53.5779 3.36076 58.031 4.78384 61.5808C6.11239 64.889 8.46493 67.4568 12.5871 69.6991L13.7266 66.9265C10.4236 64.9153 8.49118 62.5522 7.36743 59.5275C6.20691 56.4031 5.9391 52.6117 5.91285 47.7649C5.91285 47.203 5.91285 46.5623 5.91285 45.9847V45.9952Z" fill="#181818"/>
<path fill-rule="evenodd" clip-rule="evenodd" d="M24.8115 21.4984H24.5595H24.5437H24.2391H24.2181H24.2024C17.9587 21.5772 12.3189 24.145 8.21775 28.2462C4.20584 32.2581 1.66951 37.7351 1.48047 43.8107H7.47208C7.65587 39.3892 9.5253 35.4036 12.4502 32.4787C15.5327 29.3962 19.7966 27.4848 24.507 27.4848C29.2173 27.4848 33.4812 29.3962 36.5637 32.4787C39.4886 35.4036 41.358 39.3892 41.5418 43.8107H47.5334C47.3444 37.7351 44.8028 32.2581 40.7962 28.2462C36.695 24.145 31.0499 21.5824 24.8115 21.4984Z" fill="#F05325"/>
<path fill-rule="evenodd" clip-rule="evenodd" d="M58.9204 63.1614H58.9046H58.8889H58.8731H58.8574H58.6946H58.6788H58.6631H58.6473H58.5843H58.5685H58.5213H58.5108H58.4898H58.4793H58.453H58.4425C57.8859 63.2034 57.3503 63.3399 56.8619 63.55C56.3158 63.7968 55.8274 64.1329 55.4126 64.5477C54.5409 65.4194 54 66.6219 54 67.9558C54 69.2896 54.5409 70.4921 55.4126 71.3638C56.2843 72.2355 57.4868 72.7763 58.8206 72.7763C60.1544 72.7763 61.3569 72.2355 62.2286 71.3638C63.1003 70.4921 63.6412 69.2896 63.6412 67.9558C63.6412 66.6219 63.1003 65.4247 62.2286 64.5477C61.8138 64.1329 61.3307 63.7968 60.7898 63.5552H60.7845C60.3277 63.3557 59.8288 63.2244 59.309 63.1719H59.2617H59.2459H59.2354H59.2197H59.2039H59.1882H59.1829H59.1567H59.1409H59.1252H59.1147H59.0779H59.0622H58.9991L58.9204 63.1614Z" fill="#F05325"/>
<path fill-rule="evenodd" clip-rule="evenodd" d="M33.771 66.937C33.771 66.937 33.7499 66.895 33.7447 66.8688L33.4926 66.2491L29.7433 67.7877C29.0029 68.0923 28.4515 68.6752 28.1627 69.3631C27.8791 70.0405 27.8476 70.8229 28.1312 71.5476C28.1469 71.5791 28.1574 71.6106 28.1679 71.6421C28.4777 72.3615 29.0501 72.8919 29.7275 73.1754C30.4154 73.4643 31.2189 73.4905 31.9593 73.1859L35.7086 71.6473L33.771 66.9318V66.937Z" fill="#F05325"/>
<path fill-rule="evenodd" clip-rule="evenodd" d="M15.3233 66.8687C15.3233 66.8687 15.3076 66.916 15.2918 66.937L13.3594 71.6473L17.1087 73.1859C17.8491 73.4905 18.6526 73.4642 19.3405 73.1754C20.0284 72.8866 20.606 72.3405 20.9158 71.6001C21.2204 70.8544 21.1889 70.051 20.9001 69.3578C20.6113 68.6699 20.0652 68.087 19.3195 67.7824L15.5701 66.2438L15.3181 66.8635L15.3233 66.8687Z" fill="#F05325"/>
</svg>
