<svg width="72" height="49" viewBox="0 0 72 49" fill="none" xmlns="http://www.w3.org/2000/svg">
<path fill-rule="evenodd" clip-rule="evenodd" d="M20.6027 37.2687L24.47 30.7623C24.1929 30.6615 23.9094 30.5607 23.6323 30.4599L22.7505 30.1261C22.4985 30.0379 22.234 30.0316 22.0009 30.1009C21.7994 30.1639 21.6104 30.2836 21.4656 30.4536L21.0247 31.1024L18.3478 35.0579C18.3163 35.2091 18.3163 35.3728 18.3541 35.5366C18.3919 35.7067 18.4548 35.8515 18.543 35.9712C18.6375 36.0972 18.7572 36.2042 18.902 36.2861L20.5964 37.2624L20.6027 37.2687ZM59.3578 0H70.7016C71.1236 0 71.47 0.346422 71.47 0.774725V31.7763C71.47 32.1983 71.1236 32.5448 70.7016 32.5448H59.3578C58.9358 32.5448 58.5894 32.1983 58.5894 31.7763V30.4158L55.0748 32.74L55.0496 32.7589C55.1882 33.0109 55.2826 33.288 55.333 33.5714C55.4212 34.0627 55.3582 34.5792 55.1567 35.0705L54.9173 35.6437C54.2623 37.212 53.4687 38.604 52.5113 39.8574C51.5476 41.1171 50.4138 42.2446 49.0723 43.2839L43.6429 47.4976C43.202 47.844 42.6855 48.033 42.1564 48.0645C41.6273 48.096 41.0919 47.97 40.6133 47.6866L35.5807 44.7073C35.4106 44.9656 35.2154 45.186 34.9886 45.375L34.9634 45.3939C34.6926 45.6017 34.3714 45.7592 34.0123 45.86C33.6533 45.9544 33.3006 45.9796 32.9542 45.9356C32.6078 45.8915 32.2739 45.7781 31.959 45.5891L18.1525 37.6151C17.8187 37.4199 17.5352 37.1742 17.3211 36.8782C17.1006 36.5822 16.9495 36.242 16.8676 35.8641C16.7857 35.4799 16.7794 35.1083 16.8487 34.7493C16.8739 34.617 16.9117 34.4847 16.9621 34.3525L12.8995 30.7371V31.77C12.8995 32.192 12.5531 32.5385 12.1248 32.5385H0.768427C0.346422 32.5385 0 32.192 0 31.77V0.774725C0 0.346422 0.346422 0 0.768427 0H12.1122C12.5342 0 12.8869 0.346422 12.8869 0.774725V1.39829L18.5241 3.16819C19.2359 3.39494 19.7838 3.88622 20.1051 4.49719C20.4263 5.10815 20.5145 5.84508 20.2877 6.55052L20.2436 6.6765L26.9264 7.26226H26.9831L39.9393 8.81172C41.0038 8.50309 42.0934 8.22595 43.2713 7.96141L51.4468 6.12852C51.3334 5.52386 51.4342 4.90659 51.7114 4.39011C52.0326 3.77915 52.5869 3.28786 53.2923 3.06111L58.5831 1.39829V0.774725C58.5831 0.346422 58.9295 0 59.3515 0L59.3578 0ZM54.0859 31.5748C54.1237 31.5307 54.1741 31.4866 54.2245 31.4551L58.3186 28.7404C58.3815 28.7026 58.4445 28.6711 58.5075 28.6522L51.894 7.60869L43.6051 9.46047C42.4398 9.71871 41.3376 10.0021 40.2542 10.3234H40.2479L40.2038 10.3423H40.1849C39.933 10.4242 39.6748 10.4997 39.4228 10.5816C38.0812 11.0036 36.7585 11.4886 35.3602 12.0618L25.4337 16.1433L25.8368 16.9999C26.2399 17.8502 26.9075 18.4926 27.7012 18.8643C28.4948 19.2359 29.4207 19.3303 30.334 19.0847L39.8763 16.5338C40.1661 16.4519 40.4684 16.559 40.6573 16.7731L54.0922 31.5811L54.0859 31.5748ZM25.9313 31.3165C26.1202 31.3921 26.3092 31.474 26.4981 31.5559C26.9768 31.77 27.4303 31.9968 27.8775 32.2487C28.3184 32.4944 28.753 32.7652 29.1813 33.0613L25.0306 39.8259L21.9443 38.0434L25.9376 31.3165H25.9313ZM26.3596 40.5944L29.6159 42.4776L33.351 36.305L30.4033 33.9871L26.3533 40.5944H26.3596ZM30.9449 43.2461L32.7148 44.2664C32.8597 44.3483 32.9983 44.3987 33.1431 44.4176C33.288 44.4365 33.4392 44.4176 33.5966 44.3798C33.7541 44.3357 33.8927 44.2727 34.006 44.1782L34.0186 44.1657C34.1257 44.0775 34.2202 43.9641 34.2958 43.8318L36.4625 40.0086C36.6011 39.7566 36.6451 39.4795 36.5948 39.215C36.5381 38.9504 36.3932 38.7048 36.1728 38.5284L34.5603 37.2624L30.9323 43.2398L30.9449 43.2461ZM13.2396 28.9924L17.7746 33.0298L20.1366 29.6663C20.4956 29.1561 20.9932 28.8034 21.5411 28.6334C22.0954 28.457 22.7064 28.4696 23.2859 28.69L25.9565 29.6852C26.9327 30.0442 27.8019 30.441 28.6271 30.9071C29.301 31.2851 29.9498 31.7071 30.5985 32.1921H30.6111C30.6615 32.2298 30.6993 32.2613 30.7434 32.2991C30.8505 32.381 30.9575 32.4629 31.0646 32.5448L37.1364 37.3254C37.4262 37.5521 37.6592 37.8293 37.8293 38.1316L45.9544 43.7562L48.1212 42.0745C48.392 41.8604 48.6565 41.6525 48.9148 41.4258L37.3002 32.5511C36.9664 32.2928 36.8971 31.8078 37.1553 31.474C37.4136 31.1339 37.8986 31.0709 38.2324 31.3291L50.0485 40.3613C50.4894 39.9015 50.8988 39.4291 51.283 38.9315C51.6043 38.5095 51.9003 38.0749 52.1837 37.6214L41.8037 28.3688C41.4888 28.0854 41.4573 27.6004 41.7407 27.2792C42.0241 26.9642 42.5091 26.939 42.8304 27.2162L52.9522 36.2357C53.1411 35.8578 53.3238 35.461 53.4939 35.0579L53.7332 34.4847C53.8214 34.2706 53.8466 34.0438 53.8151 33.836C53.7773 33.6281 53.6828 33.4266 53.5253 33.2565L39.8133 18.1462L30.7245 20.5838C29.4522 20.9239 28.161 20.7916 27.0524 20.2751C25.9376 19.7586 25.0054 18.858 24.4448 17.6675L23.7079 16.1055L23.6827 16.0425C23.5189 15.652 23.7079 15.1985 24.1047 15.041L34.7808 10.6572C35.3665 10.4116 35.946 10.1848 36.5129 9.97695L26.8068 8.81801L19.8027 8.20705H19.7901L13.2459 29.0113L13.2396 28.9924ZM38.0686 40.1598C38.0119 40.3676 37.9238 40.5755 37.8167 40.7644L36.3428 43.3657L41.3943 46.3576C41.6084 46.4835 41.8352 46.5402 42.0619 46.5276C42.2824 46.515 42.5028 46.4331 42.6981 46.282L44.6884 44.7325L38.0749 40.1598H38.0686ZM12.8869 24.9739L18.8202 6.09703C18.9146 5.7884 18.8831 5.47347 18.7446 5.20893C18.606 4.95069 18.373 4.73653 18.0706 4.64205L12.8932 3.01072V24.9739H12.8869ZM11.3374 1.54315H1.54315V31.0016H11.3374V1.54315ZM58.5894 23.7519V3.01072L53.7584 4.52868C53.4561 4.62316 53.2167 4.83731 53.0844 5.09555C52.9459 5.36009 52.9144 5.67502 53.0089 5.98365L58.5957 23.7519H58.5894ZM60.1326 28.7782V28.7971V31.0016H69.9332V1.54315H60.1326V1.95886V28.7719V28.7782Z" fill="#30383B"/>
<path fill-rule="evenodd" clip-rule="evenodd" d="M11.3373 1.54317H1.54297V31.0016H11.3373V29.9939V1.95887V1.54317Z" fill="#F05325"/>
<path fill-rule="evenodd" clip-rule="evenodd" d="M60.1328 28.7782V28.7971V31.0016H69.9271V1.54317H60.1328V1.93998V1.96517V28.7782Z" fill="#F05325"/>
</svg>
