<svg width="81" height="81" viewBox="0 0 81 81" fill="none" xmlns="http://www.w3.org/2000/svg">
<path d="M23.1366 53.3103L23.1507 53.2915L37.6476 34.52L55.1537 34.5059C55.538 34.5059 55.8708 34.2856 56.0348 33.9669L63.0982 21.4713C63.3607 20.9979 63.1966 20.398 62.7185 20.1261C62.4279 19.9621 62.0858 19.9668 61.8046 20.098L58.1487 21.8884L55.374 16.2218L76.6765 4.77142V28.9893L70.3725 29.2143L70.2365 25.3053C70.2178 24.7616 69.7585 24.3304 69.2148 24.3538C68.8539 24.3679 68.5539 24.5647 68.3898 24.8553L59.3111 40.7959L41.1957 40.824C40.8817 40.824 40.5958 40.974 40.4177 41.2037L28.1048 57.1396C27.8517 57.463 27.4908 57.6598 27.1159 57.702C26.7362 57.7489 26.3378 57.6551 26.0144 57.402L23.4038 55.3866H23.3944C23.0757 55.1335 22.8835 54.7773 22.8319 54.4023C22.7851 54.0227 22.8788 53.629 23.1319 53.3056L23.1366 53.3103Z" fill="#F05325"/>
<path d="M12.58 80.42C12.0316 80.42 11.5863 79.9747 11.5863 79.4264V68.829H0.99365C0.445267 68.829 0 68.3837 0 67.84C0 67.2963 0.445267 66.8511 0.99365 66.8511H11.5863V0.988963C11.5863 0.445267 12.0316 0 12.58 0C13.1284 0 13.5689 0.445267 13.5689 0.988963V66.8557H79.431C79.9747 66.8557 80.42 67.301 80.42 67.8447C80.42 68.3884 79.9747 68.8337 79.431 68.8337H13.5689V79.431C13.5689 79.9794 13.1237 80.4247 12.58 80.4247V80.42Z" fill="#181818"/>
</svg>
