<svg width="60" height="61" viewBox="0 0 60 61" fill="none" xmlns="http://www.w3.org/2000/svg">
<path d="M5.7978 60.6544C2.6665 60.6544 0.528956 59.2106 0.0726975 56.7981C-0.621065 53.0793 3.24151 48.0917 8.85411 45.4479C11.0417 44.4166 13.2167 43.8728 15.148 43.8728C18.2793 43.8728 20.4231 45.3166 20.8731 47.7354C21.5668 51.4542 17.7043 56.4356 12.0854 59.0856C9.90413 60.1169 7.72909 60.6607 5.7978 60.6607V60.6544ZM15.148 46.5166C13.6292 46.5166 11.7917 46.9854 9.98538 47.8354C5.17279 50.1042 2.26649 54.123 2.67275 56.3043C2.94775 57.7856 4.74778 58.0044 5.79155 58.0044C7.31033 58.0044 9.14162 57.5356 10.9479 56.6856C15.7667 54.4168 18.673 50.398 18.2668 48.2167C17.9918 46.7354 16.1917 46.5166 15.148 46.5166Z" fill="#35434C"/>
<path d="M20.9563 47.9542H18.3125V11.7785H20.9563V47.9542Z" fill="#35434C"/>
<path d="M44.8306 51.173C41.6993 51.173 39.5618 49.7292 39.1118 47.3104C38.418 43.5916 42.2806 38.6102 47.8994 35.9602C50.087 34.9289 52.262 34.3852 54.1933 34.3852C57.3246 34.3852 59.4684 35.8289 59.9184 38.2477C60.6122 41.9665 56.7496 46.9479 51.1307 49.5979C48.9432 50.6292 46.7682 51.173 44.8431 51.173H44.8306ZM54.187 37.0352C52.6683 37.0352 50.8307 37.504 49.0182 38.354C44.2056 40.6228 41.2993 44.6416 41.7056 46.8229C41.9806 48.3042 43.7806 48.5229 44.8244 48.5229C46.3431 48.5229 48.1744 48.0542 49.987 47.2041C54.8058 44.9354 57.7121 40.9165 57.2996 38.7352C57.0246 37.254 55.2246 37.0352 54.1808 37.0352H54.187Z" fill="#35434C"/>
<path d="M59.9875 38.4727H57.3438V2.2908H59.9875V38.4727Z" fill="#35434C"/>
<path d="M19.6375 25.3537C19.3438 25.3537 19.0563 25.2537 18.8188 25.0725C18.5 24.8162 18.3125 24.435 18.3125 24.0287V11.7722C18.3125 11.1597 18.7313 10.6285 19.325 10.4847L58.357 1.00953C58.7508 0.922028 59.1695 1.00953 59.4883 1.25328C59.807 1.50954 59.9945 1.8908 59.9945 2.29705V14.5535C59.9945 15.166 59.5758 15.6973 58.982 15.8411L19.95 25.3225C19.8438 25.3475 19.7438 25.36 19.6375 25.36V25.3537ZM20.9563 12.816V22.3474L57.3445 13.5035V3.97834L20.9563 12.8223V12.816Z" fill="#35434C"/>
<path d="M5.7978 60.6544C2.6665 60.6544 0.528956 59.2106 0.0726975 56.7981C-0.621065 53.0793 3.24151 48.0917 8.85411 45.4479C11.0417 44.4166 13.2167 43.8728 15.148 43.8728C18.2793 43.8728 20.4231 45.3166 20.8731 47.7354C21.5668 51.4542 17.7043 56.4356 12.0854 59.0856C9.90413 60.1169 7.72909 60.6607 5.7978 60.6607V60.6544ZM15.148 46.5166C13.6292 46.5166 11.7917 46.9854 9.98538 47.8354C5.17279 50.1042 2.26649 54.123 2.67275 56.3043C2.94775 57.7856 4.74778 58.0044 5.79155 58.0044C7.31033 58.0044 9.14162 57.5356 10.9479 56.6856C15.7667 54.4168 18.673 50.398 18.2668 48.2167C17.9918 46.7354 16.1917 46.5166 15.148 46.5166Z" fill="#35434C"/>
<path d="M20.9563 47.9542H18.3125V11.7785H20.9563V47.9542Z" fill="#35434C"/>
<path d="M44.8306 51.173C41.6993 51.173 39.5618 49.7292 39.1118 47.3104C38.418 43.5916 42.2806 38.6102 47.8994 35.9602C50.087 34.9289 52.262 34.3852 54.1933 34.3852C57.3246 34.3852 59.4684 35.8289 59.9184 38.2477C60.6122 41.9665 56.7496 46.9479 51.1307 49.5979C48.9432 50.6292 46.7682 51.173 44.8431 51.173H44.8306ZM54.187 37.0352C52.6683 37.0352 50.8307 37.504 49.0182 38.354C44.2056 40.6228 41.2993 44.6416 41.7056 46.8229C41.9806 48.3042 43.7806 48.5229 44.8244 48.5229C46.3431 48.5229 48.1744 48.0542 49.987 47.2041C54.8058 44.9354 57.7121 40.9165 57.2996 38.7352C57.0246 37.254 55.2246 37.0352 54.1808 37.0352H54.187Z" fill="#35434C"/>
<path d="M59.9875 38.4727H57.3438V2.2908H59.9875V38.4727Z" fill="#35434C"/>
<path d="M19.6375 25.3537C19.3438 25.3537 19.0563 25.2537 18.8188 25.0725C18.5 24.8162 18.3125 24.435 18.3125 24.0287V11.7722C18.3125 11.1597 18.7313 10.6285 19.325 10.4847L58.357 1.00953C58.7508 0.922028 59.1695 1.00953 59.4883 1.25328C59.807 1.50954 59.9945 1.8908 59.9945 2.29705V14.5535C59.9945 15.166 59.5758 15.6973 58.982 15.8411L19.95 25.3225C19.8438 25.3475 19.7438 25.36 19.6375 25.36V25.3537ZM20.9563 12.816V22.3474L57.3445 13.5035V3.97834L20.9563 12.8223V12.816Z" fill="#35434C"/>
<path d="M20.9531 12.816V22.3474L57.3413 13.5098V3.97833L20.9531 12.816Z" fill="#F05325"/>
</svg>
