<svg width="66" height="66" viewBox="0 0 66 66" fill="none" xmlns="http://www.w3.org/2000/svg">
<path fill-rule="evenodd" clip-rule="evenodd" d="M22.4535 29.8749L13.594 21.013L10.3418 21.1518C10.0695 21.1679 9.82381 21.0451 9.66895 20.8475L0.173949 9.18302C-0.093064 8.85203 -0.0610224 8.37691 0.238033 8.08329L5.32731 3.00108C5.62636 2.70213 6.10165 2.68612 6.42206 2.95304L18.0745 12.4502C18.2828 12.6156 18.3843 12.8666 18.3736 13.1175L18.2294 16.3686L27.0889 25.2304L32.0927 20.2283C31.751 17.7032 31.9699 15.114 32.7549 12.6744C33.5613 10.192 34.9498 7.8484 36.9257 5.87851C39.3395 3.46553 42.298 1.92272 45.406 1.26609C48.6155 0.582764 51.9799 0.833672 55.0666 2.01881C55.4884 2.17896 55.702 2.64875 55.5418 3.07048C55.4991 3.17725 55.435 3.27335 55.3549 3.35342L45.4114 13.2936L47.3232 19.5663L53.598 21.4775L63.5362 11.5373C63.8566 11.2223 64.3746 11.2223 64.6897 11.5373C64.7805 11.6334 64.8499 11.7348 64.8873 11.8576C66.0568 14.9379 66.3025 18.2851 65.6243 21.4828C64.9621 24.5951 63.4294 27.5526 61.0103 29.9603C59.0397 31.9302 56.6953 33.3182 54.2014 34.1243C51.6541 34.9464 48.9413 35.1493 46.3139 34.7382L60.9035 49.3282L60.9462 49.3763C61.8701 50.3265 62.3347 51.5543 62.3347 52.7875C62.3347 54.0207 61.8594 55.2966 60.9035 56.2468L59.9582 57.1918L59.9422 57.2078L54.415 62.7384L53.4645 63.6887L53.4164 63.7367C52.4658 64.6603 51.2322 65.1194 50.004 65.1194C48.7757 65.1194 47.4994 64.6442 46.5435 63.6887L32.0393 49.1894L17.7488 63.6459C17.2735 64.1264 16.7448 64.4948 16.1627 64.735C15.586 64.9752 14.9558 65.098 14.2776 65.098C13.6101 65.098 12.9799 64.9806 12.3925 64.7403C11.8051 64.4948 11.2764 64.1424 10.8011 63.6726L3.1912 56.06C2.24063 55.1044 1.75467 53.8499 1.75467 52.6007C1.75467 51.3515 2.23529 50.0969 3.1912 49.1467L22.4535 29.8855V29.8749ZM37.0378 44.1232L53.8436 60.9981L58.2227 56.6205L41.3901 39.719L37.0378 44.1232ZM52.6901 62.1512L35.895 45.2817L34.1167 47.0754L33.1821 48.0203L47.697 62.5302C48.3325 63.1601 49.1709 63.4805 50.004 63.4805C50.8371 63.4805 51.6488 63.1815 52.2789 62.5676L52.3163 62.5302L52.6901 62.1512ZM35.1207 43.7495C35.158 43.6694 35.2114 43.584 35.2862 43.5146L40.8134 37.9893L44.589 34.1723L44.605 34.1563L45.5395 33.2061C45.8226 32.9018 46.2978 32.8484 46.6343 33.11L46.677 33.142C49.0267 33.489 51.4405 33.2968 53.7101 32.5708C55.953 31.8501 58.0731 30.5956 59.8621 28.8072C62.0516 26.6238 63.4401 23.9492 64.0382 21.1412C64.5669 18.6534 64.4761 16.0696 63.7659 13.6193L54.4097 22.9722C54.2014 23.1751 53.897 23.2659 53.598 23.1751L46.442 20.997C46.191 20.9223 45.9828 20.7248 45.8973 20.4525L43.7345 13.3737C43.617 13.0801 43.6758 12.7278 43.9161 12.4875L53.2722 3.13455C50.8264 2.42453 48.231 2.33378 45.7478 2.86228C42.9388 3.46019 40.2633 4.84819 38.0792 7.03696C36.2955 8.82 35.0406 10.934 34.3143 13.1815C33.5666 15.4984 33.3851 17.9594 33.7642 20.3511C33.823 20.602 33.7536 20.8849 33.5666 21.0878L33.5453 21.1091L27.6763 26.9708L24.1838 30.4621L24.1678 30.4781L4.33936 50.2838C3.70387 50.9191 3.38879 51.7572 3.38879 52.59C3.38879 53.4228 3.70387 54.2609 4.33936 54.8962L11.9546 62.5089C12.2803 62.8345 12.6328 63.0747 13.0066 63.2295C13.3965 63.3844 13.8183 63.4698 14.2723 63.4698C14.7208 63.4698 15.1427 63.3844 15.5272 63.2242C15.9117 63.0641 16.2642 62.8238 16.5793 62.5035L31.4092 47.5025L31.4519 47.4491L31.4946 47.4117L35.1153 43.7495H35.1207ZM42.533 38.5659L59.3708 55.4781L59.7553 55.0937C60.3855 54.4638 60.7059 53.6257 60.7059 52.7875C60.7059 51.9494 60.4015 51.1486 59.7927 50.5187L59.7553 50.4813L45.171 35.902L42.533 38.5712V38.5659ZM9.55146 51.6825L15.1908 57.3199L20.8301 51.6825L15.1908 46.0451L9.55146 51.6825ZM14.614 59.0549C14.9291 59.3752 15.4525 59.3752 15.7675 59.0549L22.5604 52.259C22.8808 51.9441 22.8808 51.4262 22.5604 51.1059L15.7675 44.3154C15.4525 44.0004 14.9291 44.0004 14.614 44.3154L7.82121 51.1059C7.5008 51.4262 7.5008 51.9387 7.82121 52.259L14.614 59.0549ZM14.4859 19.609L23.6017 28.7271L25.9407 26.3835L16.8249 17.2654C16.67 17.1106 16.5793 16.8917 16.5899 16.6569L16.7288 13.4538L5.95746 4.67202L1.89886 8.72391L10.6729 19.5076L13.8664 19.3635C14.0907 19.3528 14.3203 19.4329 14.4859 19.6037V19.609Z" fill="#30383B"/>
<path fill-rule="evenodd" clip-rule="evenodd" d="M42.5352 38.5659L59.373 55.4782L59.7575 55.0938C60.3877 54.4639 60.7081 53.6257 60.7081 52.7876C60.7081 51.9494 60.4037 51.1487 59.7949 50.5187L59.7575 50.4814L45.1732 35.902L42.5352 38.5713V38.5659Z" fill="#F05325"/>
<path fill-rule="evenodd" clip-rule="evenodd" d="M52.6916 62.1512L35.8965 45.2817L34.1181 47.0754L33.1836 48.0203L47.6984 62.5302C48.3339 63.1602 49.1724 63.4805 50.0054 63.4805C50.8385 63.4805 51.6502 63.1815 52.2804 62.5676L52.3178 62.5302L52.6916 62.1512Z" fill="#F05325"/>
</svg>
