<svg width="65" height="70" viewBox="0 0 65 70" fill="none" xmlns="http://www.w3.org/2000/svg">
<path fill-rule="evenodd" clip-rule="evenodd" d="M0.878693 61.4952H6.71805V35.1337H0.864745C0.385881 35.1337 0 34.7461 0 34.2697V28.917C0 28.6321 0.139475 28.3799 0.348687 28.2211L31.7585 0.215469C32.0839 -0.0787863 32.5721 -0.0647741 32.8929 0.215469L64.6839 28.3192C64.8791 28.4873 64.9768 28.7255 64.9768 28.9684V34.2743C64.9768 34.7507 64.5909 35.1384 64.112 35.1384H58.2959V61.4999H64.1306C64.6048 61.4999 64.9954 61.8876 64.9954 62.364V69.1365C64.9954 69.6176 64.6048 70.0006 64.1306 70.0006H0.878693C0.404478 70.0006 0.0185967 69.6176 0.0185967 69.1365V62.364C0.0185967 61.8876 0.404478 61.4999 0.878693 61.4999V61.4952ZM8.43359 61.4952H22.2695V35.7316C22.2695 35.2505 22.6554 34.8628 23.1296 34.8628H41.8332C42.3074 34.8628 42.6886 35.2505 42.6886 35.7316V61.4952H56.5757V34.2697C56.5757 33.7886 56.9616 33.4056 57.4358 33.4056H63.2566V29.3561L32.3303 2.01369L1.72484 29.3V33.4056H7.57814C8.05701 33.4056 8.43824 33.7886 8.43824 34.2697V61.4952H8.43359ZM41.875 63.2281H41.8332H23.1296H23.0831H7.56884H1.73879V68.2678H63.2798V63.2281H41.8797H41.875Z" fill="#181818"/>
<path fill-rule="evenodd" clip-rule="evenodd" d="M23.9922 61.4954H40.9709V36.6005H23.9922V61.4954Z" fill="#F05325"/>
</svg>
