<svg width="60" height="42" viewBox="0 0 60 42" fill="none" xmlns="http://www.w3.org/2000/svg">
<path d="M7.41259 22.3588L1.25874 42L15.1049 42L23.2168 24.2118C26.4336 17.4176 26.993 15.0706 26.993 11.8588C26.993 4.81765 21.2587 3.38687e-06 13.4266 4.07158e-06C5.59441 4.75629e-06 -3.26138e-06 4.69412 -2.63503e-06 11.8588C-2.19225e-06 16.9235 2.79721 20.6294 7.41259 22.3588ZM40.4196 22.3588L34.2657 42L48.1119 42L56.2238 24.2118C59.4406 17.4176 60 15.0706 60 11.8588C60 4.81765 54.2657 5.01305e-07 46.4336 1.18602e-06C38.6014 1.87073e-06 33.007 4.69412 33.007 11.8588C33.007 16.9235 35.8042 20.6294 40.4196 22.3588Z" fill="#DE5C35"/>
</svg>
