<svg width="60" height="42" viewBox="0 0 60 42" fill="none" xmlns="http://www.w3.org/2000/svg">
<path d="M52.5874 19.6412L58.7413 0H44.8951L36.7832 17.7882C33.5664 24.5824 33.007 26.9294 33.007 30.1412C33.007 37.1824 38.7413 42 46.5734 42C54.4056 42 60 37.3059 60 30.1412C60 25.0765 57.2028 21.3706 52.5874 19.6412ZM19.5804 19.6412L25.7343 0H11.8881L3.77622 17.7882C0.55944 24.5824 0 26.9294 0 30.1412C0 37.1824 5.73427 42 13.5664 42C21.3986 42 26.993 37.3059 26.993 30.1412C26.993 25.0765 24.1958 21.3706 19.5804 19.6412Z" fill="#DE5C35"/>
</svg>
